<svg width="16" height="16" viewBox="0 0 24 24" fill="none" xmlns="http://www.w3.org/2000/svg">
  <path d="M12 2L12 5.5C16.42 5.5 20 9.08 20 13.5C20 17.92 16.42 21.5 12 21.5C7.58 21.5 4 17.92 4 13.5C4 12.74 4.13 12.01 4.36 11.34L2.34 10.73C2.12 11.61 2 12.54 2 13.5C2 19.02 6.48 23.5 12 23.5C17.52 23.5 22 19.02 22 13.5C22 7.98 17.52 3.5 12 3.5L12 2Z" fill="#00758F"/>
  <ellipse cx="12" cy="6" rx="8" ry="2" fill="#00758F"/>
  <ellipse cx="12" cy="10" rx="8" ry="2" fill="#00758F"/>
  <ellipse cx="12" cy="14" rx="8" ry="2" fill="#00758F"/>
  <ellipse cx="12" cy="18" rx="8" ry="2" fill="#00758F"/>
</svg>
