<svg width="164" height="47" viewBox="0 0 164 47" fill="none" xmlns="http://www.w3.org/2000/svg">
<mask id="mask0_1544_3293" style="mask-type:luminance" maskUnits="userSpaceOnUse" x="0" y="0" width="164" height="47">
<path d="M164 0H0V46.1845H164V0Z" fill="white"/>
</mask>
<g mask="url(#mask0_1544_3293)">
<path d="M30.0937 18.3627C28.9889 17.2522 27.3108 16.6979 25.0535 16.6979C22.7963 16.6979 21.0477 17.2217 19.4762 18.2655C19.4591 18.2751 19.4438 18.2865 19.4286 18.2979C17.5485 19.5665 18.4914 22.5171 20.7581 22.5171H20.7943C20.901 22.5171 20.9962 22.4485 21.0401 22.3514C21.2724 21.8275 21.6458 21.4085 22.1563 21.0942C22.7182 20.7513 23.3735 20.5799 24.1278 20.5799C24.9431 20.5799 25.5545 20.7837 25.9545 21.1913C26.3564 21.6028 26.4917 22.1533 26.3545 22.8409L26.0936 24.1686H22.4172C20.0972 24.1686 18.2266 24.6467 16.8018 25.6048C15.3751 26.5629 14.4874 27.9401 14.1332 29.7269C13.8055 31.3879 14.0646 32.7003 14.9179 33.6699C15.7656 34.6413 17.0856 35.1251 18.8686 35.1251C20.4591 35.1251 21.8096 34.7328 22.922 33.9461C23.6973 33.3956 24.2668 32.7117 24.6288 31.8907H24.7278L24.2135 34.4794C24.1811 34.647 24.3087 34.8032 24.4764 34.8032H26.6174C27.9012 34.8032 29.0022 33.8946 29.2518 32.6355L31.189 22.8409C31.5585 20.9666 31.1947 19.4751 30.0937 18.3646V18.3627ZM25.1735 28.8221C25.0135 29.6411 24.5754 30.304 23.863 30.8088C23.1487 31.3155 22.322 31.5688 21.3753 31.5688C20.5162 31.5688 19.88 31.3593 19.4686 30.9383C19.059 30.5193 18.9238 29.9421 19.0686 29.2087C19.2057 28.5211 19.541 27.9668 20.0762 27.5439C20.6096 27.1249 21.2401 26.9153 21.9715 26.9153H25.5488L25.1735 28.8221Z" fill="white"/>
<path d="M43.0125 30.4373H39.7953C39.2162 30.4373 38.7819 30.2602 38.5 29.904C38.2143 29.5497 38.1304 29.0811 38.2466 28.4982L41.6029 11.5262C41.6353 11.3605 41.5077 11.2062 41.3382 11.2062H33.6979C33.5684 11.2062 33.4598 11.2976 33.4331 11.4214L32.6769 15.2482C32.6445 15.4139 32.7722 15.5682 32.9398 15.5682H35.6408C35.8104 15.5682 35.938 15.7244 35.9056 15.8901L33.4122 28.4982C33.1646 29.7478 33.2103 30.8487 33.5493 31.7954C33.8884 32.744 34.4789 33.4831 35.3189 34.0108C36.1589 34.5403 37.2047 34.8032 38.4505 34.8032H42.2582C42.3877 34.8032 42.4963 34.7117 42.523 34.586L43.2792 30.7592C43.3116 30.5935 43.184 30.4392 43.0163 30.4392L43.0125 30.4373Z" fill="white"/>
<path d="M62.5617 17.0216H57.8587C57.7749 17.0216 57.6949 17.0616 57.6435 17.1282L52.689 23.7436H51.1099L53.5252 11.5242C53.5576 11.3585 53.43 11.2042 53.2624 11.2042H48.9746C48.847 11.2042 48.7365 11.2957 48.7117 11.4195L44.1535 34.4793C44.1211 34.645 44.2487 34.7993 44.4164 34.7993H46.7174C47.9993 34.7993 49.1022 33.8926 49.3518 32.6354L50.3042 27.8181H51.8509L54.1462 34.6164C54.1824 34.725 54.2853 34.7993 54.3996 34.7993H59.3045C59.4912 34.7993 59.6207 34.6145 59.5578 34.4412L56.4549 25.7171L62.7732 17.454C62.9084 17.2768 62.7827 17.0216 62.5598 17.0216H62.5617Z" fill="white"/>
<path d="M77.4995 20.0751C77.0747 19.0084 76.3471 18.1798 75.3166 17.5874C74.2842 16.995 72.9736 16.6979 71.3831 16.6979C69.7926 16.6979 68.3925 16.995 67.1144 17.5874C65.8382 18.1798 64.7753 19.0084 63.9314 20.0751C63.0857 21.1418 62.5238 22.3857 62.2418 23.8086L61.4113 28.0106C61.1294 29.4316 61.1999 30.6774 61.6228 31.7441C62.0456 32.8108 62.779 33.6413 63.8209 34.2337C64.8648 34.8261 66.1696 35.1232 67.7373 35.1232C69.3049 35.1232 70.7545 34.8261 72.0212 34.2337C73.2879 33.6413 74.3451 32.8108 75.189 31.7441C76.0328 30.6774 76.5966 29.4335 76.8766 28.0106L77.7071 23.8086C77.9872 22.3857 77.9167 21.1418 77.4957 20.0751H77.4995ZM72.8784 23.8105L72.0479 28.0125C71.865 28.9383 71.4764 29.6545 70.8821 30.1612C70.2878 30.6659 69.5183 30.9212 68.5735 30.9212C67.6287 30.9212 66.9849 30.6678 66.5791 30.1612C66.1734 29.6545 66.0648 28.9383 66.2477 28.0125L67.0782 23.8105C67.2668 22.8638 67.6611 22.1399 68.263 21.6447C68.8649 21.1494 69.6288 20.9018 70.5545 20.9018C71.4803 20.9018 72.1698 21.1494 72.5679 21.6447C72.9641 22.1399 73.067 22.8638 72.8803 23.8105H72.8784Z" fill="white"/>
<path d="M95.3247 23.4866C95.2409 23.9114 95.0124 24.2733 94.7019 24.5305C94.3876 24.7857 93.9876 24.9381 93.5552 24.9381H90.2084C90.0388 24.9381 89.9131 24.7857 89.9455 24.6181L90.1074 23.8067C90.2979 22.8371 90.1817 22.0828 89.7645 21.5456C89.3455 21.0066 88.6921 20.738 87.814 20.738C86.8883 20.738 86.132 21.0066 85.5415 21.5456C84.9511 22.0828 84.5606 22.8371 84.3682 23.8067L82.6253 32.6317C82.3757 33.8908 81.2709 34.7994 79.9909 34.7994H77.6898C77.5203 34.7994 77.3946 34.6432 77.427 34.4775L80.8347 17.2369C80.8595 17.1112 80.9719 17.0217 81.0976 17.0217H85.0615C85.2311 17.0217 85.3587 17.1741 85.3282 17.3417L84.7187 20.4142H84.7701C85.1625 19.4903 85.6825 18.736 86.3282 18.1532C87.4007 17.1836 88.7855 16.6979 90.4827 16.6979C92.437 16.6979 93.839 17.2922 94.6904 18.4751C95.5419 19.6617 95.7533 21.3323 95.3266 23.4866H95.3247Z" fill="white"/>
<path d="M17.3734 11.2022H4.75007C4.62245 11.2022 4.51197 11.2937 4.4872 11.4194L0.00895339 34.4812C-0.0234287 34.6469 0.104195 34.8012 0.271819 34.8012H2.89286C4.17672 34.8012 5.28342 33.8888 5.52915 32.6278L6.79586 26.1152C6.82062 25.9894 6.9311 25.8961 7.05872 25.8961H11.7408C13.0285 25.8961 14.1333 24.9837 14.3771 23.7208L14.6666 22.2274C14.699 22.0636 14.5714 21.9074 14.4018 21.9074H7.93304C7.76541 21.9074 7.63589 21.7531 7.67017 21.5874L8.87783 15.4062C8.9026 15.2805 9.01308 15.189 9.1407 15.189H14.7123C16 15.189 17.1048 14.2766 17.3486 13.0137L17.6381 11.5203C17.6705 11.3546 17.5429 11.2003 17.3734 11.2003V11.2022Z" fill="white"/>
<path d="M115.477 14.7737C115.025 13.6422 114.252 12.7641 113.164 12.1393C112.073 11.5183 110.713 11.2021 109.076 11.2021H101.752C101.57 11.2021 101.413 11.3317 101.379 11.5088L96.8665 34.3459C96.8208 34.5821 96.9999 34.8011 97.2399 34.8011H104.413C106.046 34.8011 107.534 34.483 108.871 33.8487C110.212 33.2106 111.336 32.3211 112.237 31.182C113.138 30.0391 113.738 28.7133 114.037 27.2028L115.703 18.7681C116.006 17.2366 115.932 15.9033 115.479 14.7737H115.477ZM110.871 18.77L109.2 27.2047C109.017 28.1342 108.57 28.8752 107.859 29.4352C107.145 29.9991 106.294 30.2791 105.307 30.2791H102.505L105.381 15.7318H108.183C109.17 15.7318 109.913 16.0118 110.402 16.5719C110.892 17.1319 111.052 17.8652 110.873 18.7719L110.871 18.77Z" fill="white"/>
<path d="M132.389 12.8346C131.189 11.7469 129.393 11.2021 127.006 11.2021H119.748C119.567 11.2021 119.409 11.3317 119.375 11.5088L114.859 34.3459C114.813 34.5821 114.992 34.8011 115.232 34.8011H122.634C124.286 34.8011 125.771 34.5211 127.084 33.9611C128.398 33.4011 129.486 32.6087 130.341 31.582C131.2 30.5591 131.764 29.359 132.04 27.98C132.276 26.7742 132.208 25.7608 131.835 24.9398C131.457 24.1246 130.878 23.5093 130.086 23.0979C129.297 22.6902 128.375 22.496 127.318 22.515L127.337 22.4217C128.282 22.4217 129.198 22.2045 130.094 21.7721C130.983 21.3416 131.745 20.7378 132.383 19.9606C133.021 19.1873 133.44 18.2824 133.646 17.2481C134.012 15.3947 133.591 13.9203 132.391 12.8327L132.389 12.8346ZM127.223 27.7247C127.025 28.7152 126.57 29.4886 125.859 30.0486C125.149 30.6124 124.261 30.8924 123.213 30.8924H120.217L121.476 24.5227H124.472C125.522 24.5227 126.295 24.8103 126.785 25.3818C127.271 25.9494 127.419 26.7342 127.225 27.7247H127.223ZM128.65 17.8957C128.478 18.7586 128.074 19.4425 127.436 19.9473C126.798 20.4521 126.006 20.7092 125.061 20.7092H122.228L123.331 15.1166H126.168C127.112 15.1166 127.804 15.3585 128.248 15.8442C128.688 16.3299 128.823 17.0138 128.648 17.8957H128.65Z" fill="white"/>
<path d="M163.96 22.9895C163.907 23.2695 163.8 23.5457 163.684 23.7914C163.505 24.1724 163.269 24.5324 162.985 24.8429C162.341 25.5496 161.43 25.9077 160.501 26.0962C159.571 26.2848 156.745 26.1629 155.566 25.8791C152.56 25.1533 149.457 25.1686 147.619 25.8791C146.453 26.3305 146.045 26.5896 145.428 27.1191C142.992 29.2144 141.9 34.2813 140.935 37.2642C140.277 39.3043 139.632 41.4263 138.153 43.0359C135.877 45.5083 132.089 46.1827 128.654 46.1827H110.362C110.173 46.1827 110.031 46.0112 110.069 45.8264L110.423 44.0054C110.711 42.5216 112.012 41.4511 113.522 41.4511H126.854C129.78 41.4511 132.909 41.0415 134.53 38.8033C135.441 37.5443 135.702 35.9861 136.073 34.5022C137.376 29.3097 137.809 24.5095 143.007 22.4637C141.475 21.5056 140.361 19.9589 139.974 18.2579C139.262 15.1168 140.948 11.9548 141.102 8.7471C141.171 7.38134 140.849 5.84033 139.651 5.08221C138.811 4.55077 137.733 4.53362 136.723 4.53362C132.932 4.53743 130.536 4.53934 126.13 4.54315H120.945C118.962 4.54315 117.475 2.73737 117.854 0.79254L117.96 0.24014C117.989 0.0991824 118.111 -0.00177349 118.254 -0.00177349C120.599 -0.00177349 133.658 0.0115603 138.121 -0.00177349C140.698 -0.00748797 143.594 0.112516 145.338 1.90686C145.918 2.50308 146.287 3.19643 146.504 3.94693C146.516 3.97741 146.521 4.00789 146.531 4.04027C147.032 5.87843 146.638 8.04803 146.135 9.96238C145.487 12.4539 144.79 15.3492 146.18 17.7303C146.733 18.677 147.6 19.376 148.628 19.7474C149.203 19.9551 149.449 20.0598 150.059 20.0541C150.363 20.0503 150.668 20.0217 150.969 19.9665C151.569 19.8617 152.223 19.7151 152.764 19.6084C153.023 19.557 153.284 19.5112 153.546 19.4732C154.259 19.3722 155.023 19.3531 155.748 19.4979C156.28 19.6046 156.8 19.8008 157.246 20.1132C157.72 20.4465 157.998 20.8599 158.248 21.3742C158.387 21.6618 158.56 21.9532 158.842 22.1037C159.347 22.3723 160.131 22.1913 160.674 22.1475C161.24 22.1018 161.802 22.0142 162.366 21.9494C162.64 21.917 162.914 21.8904 163.191 21.877C163.408 21.8675 163.644 21.8942 163.806 22.0561C163.922 22.1723 163.979 22.338 163.991 22.5037C164.002 22.6637 163.989 22.8256 163.958 22.9876L163.96 22.9895Z" fill="white"/>
<g clip-path="url(#clip0_1544_3293)">
<mask id="mask1_1544_3293" style="mask-type:luminance" maskUnits="userSpaceOnUse" x="0" y="-1" width="164" height="47">
<path d="M164 -0.190308H0V45.9942H164V-0.190308Z" fill="white"/>
</mask>
<g mask="url(#mask1_1544_3293)">
<path d="M163.96 22.7992C163.907 23.0792 163.8 23.3554 163.684 23.6011C163.505 23.9821 163.269 24.3421 162.985 24.6526C162.341 25.3592 161.43 25.7174 160.501 25.9059C159.571 26.0945 156.745 25.9726 155.565 25.6888C152.56 24.963 149.457 24.9783 147.619 25.6888C146.453 26.1402 146.045 26.3993 145.428 26.9288C142.992 29.0241 141.9 34.091 140.935 37.0739C140.277 39.114 139.632 41.236 138.153 42.8456C135.877 45.318 132.088 45.9923 128.654 45.9923H110.362C110.173 45.9923 110.031 45.8209 110.069 45.6361L110.423 43.8151C110.711 42.3313 112.012 41.2608 113.522 41.2608H126.854C129.78 41.2608 132.909 40.8512 134.53 38.613C135.441 37.354 135.702 35.7958 136.073 34.3119C137.376 29.1194 137.809 24.3192 143.007 22.2734C141.475 21.3153 140.361 19.7686 139.974 18.0676C139.262 14.9265 140.948 11.7645 141.102 8.5568C141.171 7.19103 140.849 5.65003 139.651 4.89191C138.811 4.36046 137.732 4.34332 136.723 4.34332C132.932 4.34712 130.536 4.34903 126.13 4.35284H120.945C118.962 4.35284 117.475 2.54706 117.854 0.602232L117.96 0.0498319C117.989 -0.0911252 118.111 -0.192081 118.254 -0.192081C120.599 -0.192081 133.658 -0.178747 138.121 -0.192081C140.698 -0.197796 143.594 -0.0777915 145.338 1.71656C145.918 2.31277 146.287 3.00613 146.504 3.75663C146.516 3.78711 146.521 3.81758 146.531 3.84996C147.032 5.68812 146.638 7.85772 146.135 9.77208C145.487 12.2636 144.79 15.1589 146.18 17.54C146.733 18.4867 147.6 19.1857 148.628 19.5571C149.203 19.7648 149.449 19.8695 150.059 19.8638C150.363 19.86 150.668 19.8314 150.969 19.7762C151.569 19.6714 152.223 19.5248 152.764 19.4181C153.023 19.3667 153.284 19.3209 153.546 19.2828C154.259 19.1819 155.023 19.1628 155.748 19.3076C156.28 19.4143 156.8 19.6105 157.246 19.9229C157.72 20.2562 157.998 20.6696 158.247 21.1839C158.387 21.4715 158.56 21.7629 158.842 21.9134C159.347 22.182 160.131 22.001 160.674 21.9572C161.24 21.9115 161.802 21.8239 162.366 21.7591C162.64 21.7267 162.914 21.7001 163.191 21.6867C163.408 21.6772 163.644 21.7039 163.806 21.8658C163.922 21.982 163.979 22.1477 163.991 22.3134C164.002 22.4734 163.989 22.6353 163.958 22.7973L163.96 22.7992Z" fill="white"/>
</g>
</g>
</g>
<defs>
<clipPath id="clip0_1544_3293">
<rect width="164.006" height="46.2873" fill="white" transform="translate(0 -0.190308)"/>
</clipPath>
</defs>
</svg>
